<?xml version="1.0" encoding="UTF-8" standalone="no"?>
<!-- Created with Inkscape (http://www.inkscape.org/) -->

<svg
   xmlns:osb="http://www.openswatchbook.org/uri/2009/osb"
   xmlns:dc="http://purl.org/dc/elements/1.1/"
   xmlns:cc="http://creativecommons.org/ns#"
   xmlns:rdf="http://www.w3.org/1999/02/22-rdf-syntax-ns#"
   xmlns:svg="http://www.w3.org/2000/svg"
   xmlns="http://www.w3.org/2000/svg"
   xmlns:sodipodi="http://sodipodi.sourceforge.net/DTD/sodipodi-0.dtd"
   xmlns:inkscape="http://www.inkscape.org/namespaces/inkscape"
   width="302.10361"
   height="222.80171"
   id="svg2"
   version="1.1"
   inkscape:version="0.48.4 r9939"
   sodipodi:docname="4wires_box.svg">
  <defs
     id="defs4">
    <linearGradient
       id="linearGradient4202"
       osb:paint="solid">
      <stop
         style="stop-color:#000000;stop-opacity:1;"
         offset="0"
         id="stop4204" />
    </linearGradient>
    <linearGradient
       id="linearGradient3770"
       osb:paint="solid">
      <stop
         style="stop-color:#008000;stop-opacity:1;"
         offset="0"
         id="stop3772" />
    </linearGradient>
  </defs>
  <sodipodi:namedview
     id="base"
     pagecolor="#ffffff"
     bordercolor="#666666"
     borderopacity="1.0"
     inkscape:pageopacity="0.0"
     inkscape:pageshadow="2"
     inkscape:zoom="1.4142136"
     inkscape:cx="129.29247"
     inkscape:cy="129.927"
     inkscape:document-units="px"
     inkscape:current-layer="layer1"
     showgrid="false"
     fit-margin-top="0"
     fit-margin-left="0"
     fit-margin-right="0"
     fit-margin-bottom="0"
     inkscape:window-width="1600"
     inkscape:window-height="877"
     inkscape:window-x="-8"
     inkscape:window-y="-8"
     inkscape:window-maximized="1" />
  <metadata
     id="metadata7">
    <rdf:RDF>
      <cc:Work
         rdf:about="">
        <dc:format>image/svg+xml</dc:format>
        <dc:type
           rdf:resource="http://purl.org/dc/dcmitype/StillImage" />
        <dc:title />
      </cc:Work>
    </rdf:RDF>
  </metadata>
  <g
     inkscape:label="Calque 1"
     inkscape:groupmode="layer"
     id="layer1"
     transform="translate(-449.00729,36.948164)">
    <g
       id="g8007"
       transform="matrix(1,0,0,1.2856945,-1.5380238e-8,-21.27072)">
      <path
         sodipodi:nodetypes="cc"
         inkscape:connector-curvature="0"
         id="path3759-0"
         d="m 452.98918,-12.179801 0.84866,173.265071"
         style="fill:none;stroke:#000000;stroke-width:1.53007805;stroke-linecap:butt;stroke-linejoin:miter;stroke-miterlimit:4;stroke-opacity:1;stroke-dasharray:none" />
      <path
         sodipodi:nodetypes="cc"
         inkscape:connector-curvature="0"
         d="m 551.30917,-11.053921 0,172.149381"
         style="fill:none;stroke:#000000;stroke-width:1.49910057;stroke-linecap:butt;stroke-linejoin:miter;stroke-miterlimit:4;stroke-opacity:1;stroke-dasharray:none"
         id="path3806-9" />
      <path
         sodipodi:nodetypes="cc"
         inkscape:connector-curvature="0"
         id="path3759-0-5"
         d="m 648.8057,-12.193755 0.82419,173.292885"
         style="fill:none;stroke:#000000;stroke-width:1.50792384;stroke-linecap:butt;stroke-linejoin:miter;stroke-miterlimit:4;stroke-opacity:1;stroke-dasharray:none" />
      <path
         sodipodi:nodetypes="cc"
         inkscape:connector-curvature="0"
         d="m 747.15078,-11.053844 0,172.149234"
         style="fill:none;stroke:#000000;stroke-width:1.49928892;stroke-linecap:butt;stroke-linejoin:miter;stroke-miterlimit:4;stroke-opacity:1;stroke-dasharray:none"
         id="path3806-9-7" />
    </g>
    <g
       id="g7977"
       transform="translate(-0.00873114,904.85492)">
      <g
         transform="translate(0,-835.44046)"
         id="g3636">
        <g
           id="g4170"
           transform="translate(2.2981603,8.1290255)">
          <path
             sodipodi:nodetypes="cc"
             inkscape:connector-curvature="0"
             id="path3757-4"
             d="m 549.01724,-65.59079 -98.32622,0"
             style="fill:none;stroke:#000000;stroke-width:2;stroke-linecap:butt;stroke-linejoin:miter;stroke-miterlimit:4;stroke-opacity:1;stroke-dasharray:none" />
          <path
             transform="matrix(0.52078727,0,0,0.58391298,292.43463,-239.83602)"
             d="m 310.41989,298.40958 c 0,3.22182 -2.92839,5.83363 -6.54074,5.83363 -3.61235,0 -6.54074,-2.61181 -6.54074,-5.83363 0,-3.22183 2.92839,-5.83363 6.54074,-5.83363 3.61235,0 6.54074,2.6118 6.54074,5.83363 z"
             sodipodi:ry="5.833631"
             sodipodi:rx="6.5407376"
             sodipodi:cy="298.40958"
             sodipodi:cx="303.87915"
             id="path3768-4"
             style="fill:#000000;fill-opacity:1;stroke:#000000;stroke-width:2.15312243;stroke-miterlimit:4;stroke-opacity:1;stroke-dasharray:none"
             sodipodi:type="arc" />
          <path
             transform="matrix(0.52078727,0,0,0.58391298,390.76085,-239.83602)"
             d="m 310.41989,298.40958 c 0,3.22182 -2.92839,5.83363 -6.54074,5.83363 -3.61235,0 -6.54074,-2.61181 -6.54074,-5.83363 0,-3.22183 2.92839,-5.83363 6.54074,-5.83363 3.61235,0 6.54074,2.6118 6.54074,5.83363 z"
             sodipodi:ry="5.833631"
             sodipodi:rx="6.5407376"
             sodipodi:cy="298.40958"
             sodipodi:cx="303.87915"
             id="path3768-1-8"
             style="fill:#000000;fill-opacity:1;stroke:#000000;stroke-width:2.15312243;stroke-miterlimit:4;stroke-opacity:1;stroke-dasharray:none"
             sodipodi:type="arc" />
        </g>
        <g
           id="g3601">
          <path
             sodipodi:nodetypes="cc"
             inkscape:connector-curvature="0"
             id="path3757-4-8"
             d="m 747.00079,-57.461769 -98.32622,0"
             style="fill:none;stroke:#000000;stroke-width:2;stroke-linecap:butt;stroke-linejoin:miter;stroke-miterlimit:4;stroke-opacity:1;stroke-dasharray:none" />
          <path
             transform="matrix(0.52078727,0,0,0.58391298,490.9614,-231.70699)"
             d="m 310.41989,298.40958 c 0,3.22182 -2.92839,5.83363 -6.54074,5.83363 -3.61235,0 -6.54074,-2.61181 -6.54074,-5.83363 0,-3.22183 2.92839,-5.83363 6.54074,-5.83363 3.61235,0 6.54074,2.6118 6.54074,5.83363 z"
             sodipodi:ry="5.833631"
             sodipodi:rx="6.5407376"
             sodipodi:cy="298.40958"
             sodipodi:cx="303.87915"
             id="path3768-4-6"
             style="fill:#000000;fill-opacity:1;stroke:#000000;stroke-width:2.15312243;stroke-miterlimit:4;stroke-opacity:1;stroke-dasharray:none"
             sodipodi:type="arc" />
          <path
             transform="matrix(0.52078727,0,0,0.58391298,588.89439,-231.70699)"
             d="m 310.41989,298.40958 c 0,3.22182 -2.92839,5.83363 -6.54074,5.83363 -3.61235,0 -6.54074,-2.61181 -6.54074,-5.83363 0,-3.22183 2.92839,-5.83363 6.54074,-5.83363 3.61235,0 6.54074,2.6118 6.54074,5.83363 z"
             sodipodi:ry="5.833631"
             sodipodi:rx="6.5407376"
             sodipodi:cy="298.40958"
             sodipodi:cx="303.87915"
             id="path3768-1-8-18"
             style="fill:#000000;fill-opacity:1;stroke:#000000;stroke-width:2.15312243;stroke-miterlimit:4;stroke-opacity:1;stroke-dasharray:none"
             sodipodi:type="arc" />
        </g>
      </g>
      <g
         transform="translate(0,-874.43788)"
         id="g7965">
        <g
           id="g7958">
          <g
             transform="translate(-274.18059,-15.205518)"
             id="g4016">
            <g
               id="g3952"
               transform="translate(198.00388,-28.144309)">
              <path
                 transform="matrix(0.52078727,0,0,0.58391298,371.04925,-24.35975)"
                 d="m 310.41989,298.40958 c 0,3.22182 -2.92839,5.83363 -6.54074,5.83363 -3.61235,0 -6.54074,-2.61181 -6.54074,-5.83363 0,-3.22183 2.92839,-5.83363 6.54074,-5.83363 3.61235,0 6.54074,2.6118 6.54074,5.83363 z"
                 sodipodi:ry="5.833631"
                 sodipodi:rx="6.5407376"
                 sodipodi:cy="298.40958"
                 sodipodi:cx="303.87915"
                 id="path3768-4-22"
                 style="fill:#000000;fill-opacity:1;stroke:#000000;stroke-width:2.15312243;stroke-miterlimit:4;stroke-opacity:1;stroke-dasharray:none"
                 sodipodi:type="arc" />
              <path
                 transform="matrix(0.52078727,0,0,0.58391298,469.37547,-24.35975)"
                 d="m 310.41989,298.40958 c 0,3.22182 -2.92839,5.83363 -6.54074,5.83363 -3.61235,0 -6.54074,-2.61181 -6.54074,-5.83363 0,-3.22183 2.92839,-5.83363 6.54074,-5.83363 3.61235,0 6.54074,2.6118 6.54074,5.83363 z"
                 sodipodi:ry="5.833631"
                 sodipodi:rx="6.5407376"
                 sodipodi:cy="298.40958"
                 sodipodi:cx="303.87915"
                 id="path3768-1-8-1"
                 style="fill:#000000;fill-opacity:1;stroke:#000000;stroke-width:2.15312243;stroke-miterlimit:4;stroke-opacity:1;stroke-dasharray:none"
                 sodipodi:type="arc" />
            </g>
          </g>
          <path
             sodipodi:nodetypes="cc"
             inkscape:connector-curvature="0"
             id="path3757-4-14"
             d="m 551.45515,106.53565 -98.32622,0"
             style="fill:none;stroke:#000000;stroke-width:2;stroke-linecap:butt;stroke-linejoin:miter;stroke-miterlimit:4;stroke-opacity:1;stroke-dasharray:none" />
        </g>
        <g
           id="g3623"
           transform="translate(0,1.4717617e-6)">
          <path
             sodipodi:nodetypes="cc"
             inkscape:connector-curvature="0"
             id="path3757-4-14-7"
             d="m 747.00079,106.53565 -98.32622,0"
             style="fill:none;stroke:#000000;stroke-width:2;stroke-linecap:butt;stroke-linejoin:miter;stroke-miterlimit:4;stroke-opacity:1;stroke-dasharray:none" />
          <path
             transform="matrix(0.52078727,0,0,0.58391298,490.9614,-67.709575)"
             d="m 310.41989,298.40958 c 0,3.22182 -2.92839,5.83363 -6.54074,5.83363 -3.61235,0 -6.54074,-2.61181 -6.54074,-5.83363 0,-3.22183 2.92839,-5.83363 6.54074,-5.83363 3.61235,0 6.54074,2.6118 6.54074,5.83363 z"
             sodipodi:ry="5.833631"
             sodipodi:rx="6.5407376"
             sodipodi:cy="298.40958"
             sodipodi:cx="303.87915"
             id="path3768-4-22-9"
             style="fill:#000000;fill-opacity:1;stroke:#000000;stroke-width:2.15312243;stroke-miterlimit:4;stroke-opacity:1;stroke-dasharray:none"
             sodipodi:type="arc" />
          <path
             transform="matrix(0.52078727,0,0,0.58391298,588.89439,-67.709575)"
             d="m 310.41989,298.40958 c 0,3.22182 -2.92839,5.83363 -6.54074,5.83363 -3.61235,0 -6.54074,-2.61181 -6.54074,-5.83363 0,-3.22183 2.92839,-5.83363 6.54074,-5.83363 3.61235,0 6.54074,2.6118 6.54074,5.83363 z"
             sodipodi:ry="5.833631"
             sodipodi:rx="6.5407376"
             sodipodi:cy="298.40958"
             sodipodi:cx="303.87915"
             id="path3768-1-8-1-5"
             style="fill:#000000;fill-opacity:1;stroke:#000000;stroke-width:2.15312243;stroke-miterlimit:4;stroke-opacity:1;stroke-dasharray:none"
             sodipodi:type="arc" />
        </g>
      </g>
      <g
         transform="translate(0,-840.50212)"
         id="g3573">
        <path
           style="font-size:medium;font-style:normal;font-variant:normal;font-weight:normal;font-stretch:normal;text-indent:0;text-align:start;text-decoration:none;line-height:normal;letter-spacing:normal;word-spacing:normal;text-transform:none;direction:ltr;block-progression:tb;writing-mode:lr-tb;text-anchor:start;baseline-shift:baseline;color:#000000;fill:#000000;fill-opacity:1;stroke:#ffffff;stroke-width:2;stroke-miterlimit:4;stroke-opacity:1;stroke-dasharray:none;marker:none;visibility:visible;display:inline;overflow:visible;enable-background:accumulate;font-family:Sans;-inkscape-font-specification:Sans"
           d="m 451.45355,-4.80644 0,4 198.03125,0 0,-4 -198.03125,0 z"
           id="path3757-4-14-1"
           inkscape:connector-curvature="0" />
        <path
           sodipodi:type="arc"
           style="fill:#000000;fill-opacity:1;stroke:#000000;stroke-width:3.62681794;stroke-miterlimit:4;stroke-opacity:1;stroke-dasharray:none"
           id="path3768-4-22-1"
           sodipodi:cx="303.87915"
           sodipodi:cy="298.40958"
           sodipodi:rx="6.5407376"
           sodipodi:ry="5.833631"
           d="m 310.41989,298.40958 c 0,3.22182 -2.92839,5.83363 -6.54074,5.83363 -3.61235,0 -6.54074,-2.61181 -6.54074,-5.83363 0,-3.22183 2.92839,-5.83363 6.54074,-5.83363 3.61235,0 6.54074,2.6118 6.54074,5.83363 z"
           transform="matrix(0.52078727,0,0,0.58391298,295.15712,-177.05167)" />
        <path
           sodipodi:type="arc"
           style="fill:#000000;fill-opacity:1;stroke:#000000;stroke-width:3.62681794;stroke-miterlimit:4;stroke-opacity:1;stroke-dasharray:none"
           id="path3768-1-8-1-3"
           sodipodi:cx="303.87915"
           sodipodi:cy="298.40958"
           sodipodi:rx="6.5407376"
           sodipodi:ry="5.833631"
           d="m 310.41989,298.40958 c 0,3.22182 -2.92839,5.83363 -6.54074,5.83363 -3.61235,0 -6.54074,-2.61181 -6.54074,-5.83363 0,-3.22183 2.92839,-5.83363 6.54074,-5.83363 3.61235,0 6.54074,2.6118 6.54074,5.83363 z"
           transform="matrix(0.52078727,0,0,0.58391298,490.9614,-177.05167)" />
      </g>
      <g
         transform="translate(0,-869.76158)"
         id="g3585">
        <path
           style="font-size:medium;font-style:normal;font-variant:normal;font-weight:normal;font-stretch:normal;text-indent:0;text-align:start;text-decoration:none;line-height:normal;letter-spacing:normal;word-spacing:normal;text-transform:none;direction:ltr;block-progression:tb;writing-mode:lr-tb;text-anchor:start;baseline-shift:baseline;color:#000000;fill:#000000;fill-opacity:1;stroke:#ffffff;stroke-width:2;stroke-miterlimit:4;stroke-opacity:1;stroke-dasharray:none;marker:none;visibility:visible;display:inline;overflow:visible;enable-background:accumulate;font-family:Sans;-inkscape-font-specification:Sans"
           d="m 548.96954,49.859359 0,4 198.03125,0 0,-4 -198.03125,0 z"
           id="path3757-4-14-1-4"
           inkscape:connector-curvature="0" />
        <path
           sodipodi:type="arc"
           style="fill:#000000;fill-opacity:1;stroke:#000000;stroke-width:2.15312243;stroke-miterlimit:4;stroke-opacity:1;stroke-dasharray:none"
           id="path3768-4-22-1-2"
           sodipodi:cx="303.87915"
           sodipodi:cy="298.40958"
           sodipodi:rx="6.5407376"
           sodipodi:ry="5.833631"
           d="m 310.41989,298.40958 c 0,3.22182 -2.92839,5.83363 -6.54074,5.83363 -3.61235,0 -6.54074,-2.61181 -6.54074,-5.83363 0,-3.22183 2.92839,-5.83363 6.54074,-5.83363 3.61235,0 6.54074,2.6118 6.54074,5.83363 z"
           transform="matrix(0.52078727,0,0,0.58391298,393.05278,-122.38587)" />
        <path
           sodipodi:type="arc"
           style="fill:#000000;fill-opacity:1;stroke:#000000;stroke-width:2.15312243;stroke-miterlimit:4;stroke-opacity:1;stroke-dasharray:none"
           id="path3768-1-8-1-3-7"
           sodipodi:cx="303.87915"
           sodipodi:cy="298.40958"
           sodipodi:rx="6.5407376"
           sodipodi:ry="5.833631"
           d="m 310.41989,298.40958 c 0,3.22182 -2.92839,5.83363 -6.54074,5.83363 -3.61235,0 -6.54074,-2.61181 -6.54074,-5.83363 0,-3.22183 2.92839,-5.83363 6.54074,-5.83363 3.61235,0 6.54074,2.6118 6.54074,5.83363 z"
           transform="matrix(0.52078727,0,0,0.58391298,588.89439,-122.38587)" />
      </g>
    </g>
  </g>
</svg>
